# xmcd CD database file
#
# Track frame offsets:
#	150
#	20067
#	44629
#	73060
#	95231
#	98029
#	125246
#	155400
#	175857
#	203475
#	210958
#
# Disc length: 3042 seconds
#
# Revision: 0
# Processed by: cddbd v1.5.2PL0 Copyright (c) Steve Scherf et al.
# Submitted via: CDex 1.81
#
DISCID=9d0be00b
DTITLE=Portico Quartet - Art in the Age of Automation
DYEAR=2017
DGENRE=Jazz
TTITLE0=Endless
TTITLE1=Objects To Place In A Tomb
TTITLE2=Rushing
TTITLE3=Art in the Age of Automation
TTITLE4=S/2000S5
TTITLE5=A Luminous Beam
TTITLE6=Beyond Dialogue
TTITLE7=RGB
TTITLE8=Current History
TTITLE9=Mercury Eyes
TTITLE10=Lines Glow
EXTD=YEAR: 2017
EXTT0=
EXTT1=
EXTT2=
EXTT3=
EXTT4=
EXTT5=
EXTT6=
EXTT7=
EXTT8=
EXTT9=
EXTT10=
PLAYORDER=
